<?xml version="1.0" standalone="no"?><!DOCTYPE svg PUBLIC "-//W3C//DTD SVG 1.1//EN" "http://www.w3.org/Graphics/SVG/1.1/DTD/svg11.dtd"><svg t="1502865222326" class="icon" style="" viewBox="0 0 1024 1024" version="1.1" xmlns="http://www.w3.org/2000/svg" p-id="8441" xmlns:xlink="http://www.w3.org/1999/xlink" width="128" height="128"><defs><style type="text/css"></style></defs><path d="M127.68 316.416v405.12c0 47.36 40 85.888 89.024 85.888h606.72c49.152 0 88.96-38.528 88.96-85.888v-405.12c0-47.36-39.808-85.888-88.96-85.888h-606.72c-49.088 0-89.024 38.528-89.024 85.888z m725.312 0v405.12a29.184 29.184 0 0 1-29.632 28.672h-606.72a29.184 29.184 0 0 1-29.632-28.672v-405.12c0-15.808 13.312-28.608 29.632-28.608h606.72c16.32 0 29.632 12.8 29.632 28.608zM568.32 415.232h169.024v57.216H568.32v-57.216z m0 128.768h169.024v57.28H568.32V544zM327.936 611.968h133.504c26.176 0 47.488-20.544 47.488-45.696V450.304a46.72 46.72 0 0 0-47.488-45.824H327.936a46.72 46.72 0 0 0-47.488 45.824v115.968c0 25.152 21.312 45.696 47.488 45.696z m11.84-150.272h109.76v93.056H339.776V461.696z m-280.32 470.272v-211.904h-59.392v211.904c0 47.232 39.936 85.824 89.024 85.824h198.784v-57.344H89.088a29.056 29.056 0 0 1-29.632-28.48z m0-838.848c0-15.808 13.312-28.608 29.632-28.608h198.784V7.232H89.088C40 7.232 0.064 45.824 0.064 93.12v200.448h59.392V93.12zM931.648 7.232h-198.72v57.28h198.72c16.32 0 29.632 12.864 29.632 28.608V289.28h59.456V93.12C1020.672 45.824 980.736 7.232 931.648 7.232z m29.632 924.736a29.12 29.12 0 0 1-29.632 28.48h-198.72v57.344h198.72c49.152 0 89.088-38.592 89.088-85.824v-217.6h-59.456v217.6z" p-id="8442" fill="#20a0ff"></path></svg>