<?xml version="1.0" standalone="no"?><!DOCTYPE svg PUBLIC "-//W3C//DTD SVG 1.1//EN" "http://www.w3.org/Graphics/SVG/1.1/DTD/svg11.dtd"><svg t="1497702525858" class="icon" style="" viewBox="0 0 1024 1024" version="1.1" xmlns="http://www.w3.org/2000/svg" p-id="4683" xmlns:xlink="http://www.w3.org/1999/xlink" width="16" height="16"><defs><style type="text/css"></style></defs><path d="M752 614.4 752 614.4c-28.8-28.8-73.6-33.6-108.8-11.2L600 640c-4.8 3.2-17.6 14.4-54.4-8-48-27.2-126.4-105.6-155.2-155.2-20.8-35.2-11.2-49.6-8-52.8l33.6-43.2 1.6-1.6c22.4-33.6 17.6-80-11.2-108.8l-67.2-67.2c-33.6-33.6-88-33.6-121.6 0l-25.6 25.6c-88 88-38.4 208-4.8 288 46.4 110.4 203.2 267.2 316.8 316.8C558.4 857.6 616 880 672 880c43.2 0 84.8-12.8 121.6-49.6l25.6-25.6c33.6-33.6 33.6-88 0-121.6L752 614.4zM785.6 769.6l-25.6 25.6c-56 56-128 41.6-235.2-4.8-102.4-44.8-249.6-192-292.8-291.2-38.4-92.8-65.6-174.4-4.8-235.2l25.6-25.6c8-8 17.6-11.2 27.2-11.2 9.6 0 19.2 3.2 27.2 11.2l67.2 67.2c12.8 12.8 14.4 32 4.8 46.4l-33.6 41.6c-16 20.8-27.2 56 4.8 107.2 33.6 56 118.4 140.8 172.8 172.8 41.6 24 78.4 25.6 107.2 3.2l41.6-33.6c14.4-9.6 33.6-8 46.4 4.8l67.2 67.2C800 731.2 800 755.2 785.6 769.6z" p-id="4684" fill="#20a0ff"></path><path d="M593.6 300.8c33.6 3.2 64 17.6 88 41.6 24 24 38.4 54.4 41.6 88 1.6 12.8 11.2 20.8 22.4 22.4 14.4 0 27.2-11.2 25.6-25.6-4.8-44.8-24-86.4-56-118.4-32-32-73.6-51.2-118.4-56-14.4-1.6-25.6 11.2-25.6 25.6l0 0C571.2 289.6 580.8 299.2 593.6 300.8z" p-id="4685" fill="#20a0ff"></path><path d="M582.4 416c6.4 1.6 11.2 4.8 16 9.6 4.8 4.8 8 9.6 9.6 14.4 3.2 9.6 11.2 16 22.4 17.6 16 0 28.8-16 24-32-4.8-12.8-11.2-24-20.8-33.6-9.6-9.6-20.8-17.6-33.6-20.8-16-4.8-32 6.4-32 24l0 0C568 403.2 572.8 412.8 582.4 416z" p-id="4686" fill="#20a0ff"></path><path d="M804.8 219.2c-56-56-132.8-81.6-211.2-72-14.4 1.6-24 16-20.8 28.8l0 0c3.2 11.2 14.4 19.2 25.6 17.6 62.4-8 126.4 12.8 171.2 59.2 44.8 44.8 67.2 108.8 59.2 171.2-1.6 12.8 6.4 24 19.2 25.6l0 0c14.4 3.2 27.2-6.4 28.8-20.8C888 352 860.8 275.2 804.8 219.2z" p-id="4687" fill="#20a0ff"></path></svg>