<?xml version="1.0" standalone="no"?><!DOCTYPE svg PUBLIC "-//W3C//DTD SVG 1.1//EN" "http://www.w3.org/Graphics/SVG/1.1/DTD/svg11.dtd"><svg t="1504104825740" class="icon" style="" viewBox="0 0 1303 1024" version="1.1" xmlns="http://www.w3.org/2000/svg" p-id="2396" xmlns:xlink="http://www.w3.org/1999/xlink" width="81.4375" height="64"><defs><style type="text/css"></style></defs><path d="M122.88 594.292364a46.545455 46.545455 0 1 1-59.578182-71.493819l558.545455-465.454545a46.545455 46.545455 0 0 1 59.578182 0l558.545454 465.454545a46.545455 46.545455 0 0 1-59.578182 71.493819L651.636364 153.693091 122.88 594.292364zM651.636364 526.056727l-528.756364 440.599273a46.545455 46.545455 0 0 1-59.578182-71.493818l558.545455-465.454546a46.545455 46.545455 0 0 1 59.578182 0l558.545454 465.454546a46.545455 46.545455 0 0 1-59.578182 71.493818L651.636364 526.056727z" p-id="2397" fill="#cccccc"></path></svg>