<?xml version="1.0" standalone="no"?><!DOCTYPE svg PUBLIC "-//W3C//DTD SVG 1.1//EN" "http://www.w3.org/Graphics/SVG/1.1/DTD/svg11.dtd"><svg t="1503548105190" class="icon" style="" viewBox="0 0 1024 1024" version="1.1" xmlns="http://www.w3.org/2000/svg" p-id="11496" xmlns:xlink="http://www.w3.org/1999/xlink" width="64" height="64"><defs><style type="text/css"></style></defs><path d="M317.815467 421.6832h389.000533v45.4144H317.815467z" fill="#20a0ff" p-id="11497"></path><path d="M512 0C229.239467 0 0 229.256533 0 512c0 282.7264 229.239467 512 512 512 282.7776 0 512-229.2736 512-512C1024 229.256533 794.7776 0 512 0z m238.3872 691.165867A59.938133 59.938133 0 0 1 690.6368 750.933333H333.380267a59.938133 59.938133 0 0 1-59.767467-59.767466V392.430933a59.938133 59.938133 0 0 1 59.767467-59.767466h30.1056v-37.8368c0-11.9808 9.796267-21.76 21.777066-21.76h1.160534a21.845333 21.845333 0 0 1 21.794133 21.76v37.8368h209.186133v-37.8368A21.845333 21.845333 0 0 1 639.197867 273.066667h1.143466c11.9808 0 21.777067 9.7792 21.777067 21.76v37.8368h28.484267a59.938133 59.938133 0 0 1 59.7504 59.767466v298.734934z" fill="#20a0ff" p-id="11498"></path></svg>