<?xml version="1.0" standalone="no"?><!DOCTYPE svg PUBLIC "-//W3C//DTD SVG 1.1//EN" "http://www.w3.org/Graphics/SVG/1.1/DTD/svg11.dtd"><svg t="1503547200401" class="icon" style="" viewBox="0 0 1024 1024" version="1.1" xmlns="http://www.w3.org/2000/svg" p-id="9371" xmlns:xlink="http://www.w3.org/1999/xlink" width="64" height="64"><defs><style type="text/css"></style></defs><path d="M469.541463 659.356098H322.185366c-8.741463 0-14.985366 6.243902-14.985366 13.736585 0 8.741463 7.492683 13.736585 14.985366 13.736585h147.356097c8.741463 0 14.985366-6.243902 14.985366-13.736585 0-7.492683-7.492683-13.736585-14.985366-13.736585zM324.682927 348.409756h347.160975c2.497561 0 4.995122 0 8.741464-1.24878 8.741463-1.24878 13.736585-8.741463 12.487805-14.985366-1.24878-6.243902-6.243902-12.487805-14.985366-12.487805H322.185366c-4.995122 0-9.990244 2.497561-12.487805 6.243902-2.497561 4.995122-2.497561 9.990244 0 14.985366 2.497561 6.243902 8.741463 7.492683 14.985366 7.492683z m-3.746342 112.390244h357.15122c8.741463 0 14.985366-6.243902 14.985366-13.736585 0-7.492683-7.492683-13.736585-16.234147-13.736586H322.185366c-1.24878 0-3.746341 0-4.995122 1.248781-6.243902 1.24878-12.487805 8.741463-11.239024 13.736585 1.24878 7.492683 6.243902 12.487805 14.985365 12.487805zM499.512195 546.965854H322.185366c-8.741463 0-14.985366 6.243902-14.985366 13.736585 0 7.492683 6.243902 13.736585 14.985366 13.736585H499.512195c8.741463 0 14.985366-6.243902 14.985366-13.736585 0-7.492683-6.243902-13.736585-14.985366-13.736585zM765.502439 674.341463h-44.956098v-69.931707c0-9.990244-6.243902-14.985366-14.985365-14.985366s-13.736585 6.243902-13.736586 14.985366v84.917073c0 7.492683 6.243902 13.736585 14.985366 13.736586h62.439024c7.492683-2.497561 12.487805-8.741463 9.990244-17.482927 0-6.243902-4.995122-12.487805-13.736585-11.239025zM513.24878 4.995122c-344.663415 0-499.512195 154.84878-499.512195 499.512195s154.84878 499.512195 499.512195 499.512195 499.512195-154.84878 499.512196-499.512195-153.6-499.512195-499.512196-499.512195z m186.068293 811.707317H294.712195c-14.985366 0-28.721951-2.497561-42.458536-8.741463-14.985366-7.492683-28.721951-18.731707-37.463415-32.468293-7.492683-11.239024-11.239024-22.478049-12.487805-34.965854 0-3.746341-1.24878-6.243902-1.24878-9.990244V274.731707c0-18.731707 7.492683-34.965854 18.731707-49.951219 7.492683-9.990244 17.482927-17.482927 29.970732-23.726829 8.741463-4.995122 18.731707-7.492683 29.970731-8.741464 8.741463 0 17.482927-1.24878 26.224391-1.24878h402.107317c18.731707 0 36.214634 6.243902 51.2 17.482926 14.985366 11.239024 26.22439 24.97561 31.219512 43.707318 2.497561 7.492683 3.746341 14.985366 3.746341 22.478048V559.453659c-49.95122-32.468293-103.64878-37.463415-157.346341-11.239025-36.214634 17.482927-61.190244 46.204878-73.678049 82.419512-9.990244 28.721951-9.990244 57.443902 0 87.414634 9.990244 28.721951 27.473171 52.44878 52.44878 69.931708 24.97561 17.482927 53.697561 27.473171 86.165854 28.721951H699.317073z m2.497561-29.970732c-59.941463-1.24878-116.136585-49.95122-114.887805-117.385366 2.497561-57.443902 52.44878-111.141463 123.629269-108.643902 61.190244 2.497561 113.639024 49.95122 113.639024 113.639024 1.24878 61.190244-52.44878 114.887805-122.380488 112.390244z" fill="#20a0ff" p-id="9372"></path></svg>